<svg width="25" height="21" viewBox="0 0 25 21" fill="none" xmlns="http://www.w3.org/2000/svg">
<g clip-path="url(#clip0)">
<path d="M22.2665 14.723V17.2847C22.2677 17.5225 22.2108 17.7579 22.0997 17.9758C21.9886 18.1937 21.8256 18.3893 21.6212 18.5501C21.4168 18.7108 21.1755 18.8332 20.9127 18.9094C20.65 18.9856 20.3715 19.0139 20.0953 18.9925C17.0304 18.707 14.0864 17.8091 11.4999 16.371C9.09337 15.06 7.05308 13.3108 5.5239 11.2477C3.84065 9.02007 2.79313 6.48384 2.46621 3.84447C2.44132 3.60834 2.47405 3.37036 2.56232 3.14567C2.65059 2.92098 2.79247 2.71451 2.97891 2.53941C3.16536 2.3643 3.39229 2.2244 3.64525 2.1286C3.89822 2.0328 4.17168 1.98322 4.44823 1.98299H7.43621C7.91957 1.97891 8.38817 2.12566 8.75466 2.39588C9.12116 2.66609 9.36054 3.04134 9.42819 3.45168C9.55431 4.27147 9.78819 5.0764 10.1254 5.85111C10.2594 6.15674 10.2884 6.4889 10.209 6.80822C10.1295 7.12755 9.94497 7.42066 9.67719 7.65282L8.41228 8.73726C9.83013 10.875 11.8947 12.645 14.3882 13.8606L15.6531 12.7762C15.9239 12.5466 16.2658 12.3884 16.6383 12.3203C17.0108 12.2522 17.3982 12.277 17.7547 12.3919C18.6583 12.681 19.5972 12.8815 20.5534 12.9896C21.0372 13.0482 21.4791 13.2571 21.795 13.5767C22.1108 13.8963 22.2786 14.3043 22.2665 14.723Z" stroke="#69B99D" stroke-width="2" stroke-linecap="round" stroke-linejoin="round"/>
</g>
<defs>
<clipPath id="clip0">
<rect width="23.9038" height="20.4934" fill="white" transform="translate(0.354706 0.275146)"/>
</clipPath>
</defs>
</svg>
